<?xml version="1.0" standalone="no"?>
<!DOCTYPE svg PUBLIC "-//W3C//DTD SVG 20010904//EN"
 "http://www.w3.org/TR/2001/REC-SVG-20010904/DTD/svg10.dtd">
<svg version="1.0" xmlns="http://www.w3.org/2000/svg"
 width="700.000000pt" height="700.000000pt" viewBox="0 0 700.000000 700.000000"
 preserveAspectRatio="xMidYMid meet">
<metadata>
Created by potrace 1.11, written by Peter Selinger 2001-2013
</metadata>
<g transform="translate(0.000000,700.000000) scale(0.100000,-0.100000)"
fill="#000000" stroke="none">
<path d="M3306 5783 c-64 -143 -590 -1301 -626 -1378 -65 -138 -220 -478 -220
-481 0 -2 -13 -33 -30 -68 -16 -36 -41 -94 -56 -128 -62 -150 -200 -453 -414
-913 -15 -33 -44 -94 -63 -135 -19 -41 -50 -109 -69 -150 -20 -41 -63 -136
-96 -210 -33 -74 -79 -175 -102 -225 -23 -49 -85 -187 -137 -305 -52 -118
-103 -233 -113 -255 -61 -136 -142 -334 -147 -359 -4 -18 -1 -31 8 -36 16 -10
113 -22 190 -23 76 0 425 15 492 22 9 1 29 44 204 431 41 91 88 194 105 230
16 36 50 110 75 165 72 160 83 185 129 283 24 52 44 95 44 97 0 2 18 43 41 92
22 48 46 102 54 118 45 100 251 548 294 638 28 60 51 110 51 112 0 1 26 58 58
126 33 68 76 162 97 209 21 47 60 132 86 189 27 57 49 105 49 106 0 2 25 55
55 120 30 64 55 118 55 119 0 2 20 46 43 97 135 290 137 294 332 729 76 168
148 328 160 355 167 369 215 477 215 486 0 5 -17 17 -37 27 -32 14 -88 17
-358 20 l-321 4 -48 -109z"/>
<path d="M5056 5838 c-13 -29 -36 -80 -51 -113 -15 -33 -74 -162 -131 -287
-57 -124 -124 -270 -149 -323 -25 -53 -45 -98 -45 -100 0 -1 -22 -49 -49 -106
-76 -163 -121 -260 -121 -264 0 -2 -27 -60 -60 -130 -33 -70 -60 -128 -60
-130 0 -4 -48 -108 -107 -235 -20 -41 -59 -127 -88 -190 -29 -63 -64 -140 -78
-170 -20 -44 -211 -464 -452 -995 -15 -33 -40 -87 -55 -120 -15 -33 -38 -82
-50 -110 -36 -80 -75 -165 -104 -227 -14 -32 -38 -84 -52 -115 -64 -141 -83
-182 -114 -248 -18 -38 -61 -135 -97 -215 -74 -165 -82 -183 -153 -340 -101
-223 -123 -283 -106 -295 9 -7 69 -10 158 -9 276 3 448 24 535 66 38 17 48 30
82 101 21 45 69 145 106 222 37 77 114 244 172 370 58 127 118 257 133 290 52
111 100 216 100 220 0 2 20 46 44 97 24 51 54 116 66 143 12 28 38 84 57 125
19 41 55 120 80 175 78 174 85 188 120 265 29 63 109 237 258 565 25 55 162
350 250 540 21 44 45 98 55 120 10 22 33 74 53 115 55 119 87 189 127 280 21
47 51 114 68 150 16 36 42 92 57 125 15 33 33 74 40 90 44 96 226 521 250 582
15 39 25 78 22 86 -11 29 -148 44 -424 46 l-263 2 -24 -53z"/>
</g>
</svg>
